<svg xmlns="http://www.w3.org/2000/svg" viewBox="0 0 512 512" xml:space="preserve"><path d="M492.5 330.2H463c0-56.4-20.8-109.9-58.8-151.3h-66.8v-29.6h79.4l4.3 4.5c46 47.5 71.4 110.2 71.4 176.4z" fill="#296b94"/><path d="M140.3 139.5h197.1v49.3H140.3v-49.3z" fill="#3c95ab"/><path d="m110.7 54.4 29.6 85.1h197.1L349 106 110.7 54.4zm226.7 134.3c44.7 31.2 73.9 82.9 73.9 141.5 0 95.2-77.2 172.4-172.4 172.4S66.4 425.4 66.4 330.2c0-58.6 29.2-110.3 73.9-141.5h197.1zm44.3 141.5c-35.7 0-35.7 19.7-71.4 19.7s-35.7-19.7-71.4-19.7-35.7 19.7-71.4 19.7-35.7-19.7-71.4-19.7c0 78.8 64.1 142.9 142.9 142.9S381.7 409 381.7 330.2z" fill="#c8feff"/><path d="M310.2 349.9c35.7 0 35.7-19.7 71.4-19.7 0 78.8-64.1 142.9-142.9 142.9S95.9 409 95.9 330.2c35.7 0 35.7 19.7 71.4 19.7s35.7-19.7 71.4-19.7 35.9 19.7 71.5 19.7z" fill="#8e4238"/><path d="M499.9 329.7c-.2-67.9-26.2-132.2-73.4-181l-4.3-4.5c-1.4-1.4-3.3-2.3-5.3-2.3h-72.1v-1.2l11.2-32.3c.7-2 .5-4.2-.5-6.1s-2.8-3.2-4.9-3.6L112.4 47.2c-2.6-.5-5.3.4-7.1 2.4-1.8 2-2.4 4.8-1.4 7.3l29.1 83.9V185c-46.4 33.8-74 87.8-74 145.2C59 429.3 139.7 510 238.8 510s179.8-80.7 179.8-179.8c0-56.7-26.9-110.1-72.1-144h54.4c35.3 39.7 54.7 90.7 54.7 144 0 4.1 3.3 7.4 7.4 7.4h29.6c4.1 0 7.4-3.3 7.4-7.4 0-.2-.1-.3-.1-.5zM339.3 111.5l-7.1 20.6h-24.3c-4.1 0-7.4 3.3-7.4 7.4s3.3 7.4 7.4 7.4h22.2v34.5H147.7v-34.5h130.5c4.1 0 7.4-3.3 7.4-7.4 0-4.1-3.3-7.4-7.4-7.4H145.5L122 64.3l217.3 47.2zm64.5 218.7c0 91-74.1 165-165 165s-165-74.1-165-165c0-53.2 25.7-103.1 68.9-134.1H335c43.1 31 68.8 80.9 68.8 134.1zm66.4-7.4c-1.7-55.3-23.2-108-60.6-148.9-1.4-1.5-3.3-2.4-5.4-2.4h-59.4v-14.7h68.9l2.2 2.3c43 44.4 67.4 102.4 69.2 163.9l-14.9-.2z" fill="#700d00"/><path d="M310.2 342.5c-15.9 0-23.4-4.2-32.1-9-9.1-5.1-19.5-10.8-39.2-10.8-19.7 0-30.1 5.7-39.2 10.8-8.7 4.8-16.2 9-32.1 9s-23.4-4.2-32.1-9c-9.3-5.1-19.7-10.8-39.4-10.8-4.1 0-7.4 3.3-7.4 7.4 0 34.4 11.9 67.9 33.6 94.6 2.5 3.2 7.2 3.6 10.4 1.1s3.6-7.2 1.1-10.4c-17.9-22.1-28.5-49.3-30.1-77.5 10.9 1.1 17.4 4.6 24.5 8.6 9.1 5.1 19.5 10.8 39.2 10.8s30.1-5.7 39.2-10.8c8.7-4.8 16.2-9 32.1-9s23.4 4.2 32.1 9c9.1 5.1 19.5 10.8 39.2 10.8s30.1-5.7 39.2-10.8c7.1-4 13.6-7.5 24.5-8.6-3.7 71.2-62.7 127.8-134.8 127.8-30.9 0-61.2-10.8-85.3-30.3-3.2-2.5-7.8-2.1-10.4 1.1-2.5 3.2-2.1 7.8 1.1 10.4 26.7 21.7 60.3 33.6 94.6 33.6 82.8 0 150.2-67.4 150.2-150.2 0-4.1-3.3-7.4-7.4-7.4-19.8 0-30.1 5.7-39.2 10.8-8.8 4.7-16.3 8.8-32.3 8.8z" fill="#700d00"/></svg>