<svg xmlns="http://www.w3.org/2000/svg" viewBox="0 0 512 512" xml:space="preserve"><path d="M491.6 313.2h-32.7c0-62.4-23-121.5-65-167.3H320v-32.7h87.8l4.8 5c50.9 52.5 79 121.8 79 195z" fill="#296b94"/><path d="M102.1 102.3H320v54.5H102.1z" fill="#3c95ab"/><path d="m69.4 8.2 32.7 94.1H320l12.8-37zM320 156.7c49.4 34.5 81.7 91.7 81.7 156.5 0 105.3-85.4 190.6-190.6 190.6S20.4 418.5 20.4 313.2c0-64.8 32.3-122 81.7-156.5H320zm49 156.5c-39.5 0-39.5 21.8-79 21.8s-39.5-21.8-79-21.8-39.5 21.8-79 21.8-39.5-21.8-79-21.8c0 87.1 70.9 158 158 158s158-70.9 158-158z" fill="#c8feff"/><path d="M290 335c39.5 0 39.5-21.8 79-21.8 0 87.1-70.9 158-158 158s-158-70.9-158-158c39.5 0 39.5 21.8 79 21.8s39.5-21.8 79-21.8 39.6 21.8 79 21.8z" fill="#8e4238"/><path d="M499.7 312.6c-.2-75.1-29-146.2-81.2-200.1l-4.8-5c-1.5-1.6-3.7-2.5-5.9-2.5h-79.7v-1.3L340.5 68c.8-2.2.6-4.6-.6-6.7s-3.1-3.5-5.4-4L71.2.2c-2.9-.6-5.9.4-7.8 2.6-2 2.2-2.6 5.3-1.6 8.1L94 103.7v48.9C42.7 190 12.2 249.7 12.2 313.2 12.2 422.8 101.4 512 211 512s198.8-89.2 198.8-198.8c0-62.7-29.7-121.7-79.7-159.2h60.1c39 43.9 60.5 100.3 60.5 159.2 0 4.5 3.7 8.2 8.2 8.2h32.7c4.5 0 8.2-3.7 8.2-8.2 0-.2-.1-.4-.1-.6zM322.1 71.3l-7.9 22.8h-26.9c-4.5 0-8.2 3.7-8.2 8.2s3.7 8.2 8.2 8.2h24.5v38.1H110.3v-38.1h144.3c4.5 0 8.2-3.7 8.2-8.2s-3.7-8.2-8.2-8.2H107.9l-26-74.9 240.2 52.1zm71.4 241.9c0 100.6-81.9 182.5-182.5 182.5S28.6 413.8 28.6 313.2c0-58.8 28.4-114 76.2-148.3h212.6c47.7 34.3 76.1 89.5 76.1 148.3zm73.4-8.2c-1.9-61.2-25.6-119.4-67-164.7-1.5-1.7-3.7-2.6-6-2.6h-65.7v-16.3h76.2l2.4 2.5c47.5 49.1 74.5 113.2 76.5 181.2l-16.4-.1z" fill="#700d00"/><path d="M290 326.8c-17.6 0-25.9-4.6-35.5-9.9-10.1-5.6-21.6-11.9-43.4-11.9-21.8 0-33.3 6.3-43.4 11.9-9.6 5.3-17.9 9.9-35.5 9.9s-25.9-4.6-35.5-9.9C86.4 311.3 74.9 305 53.1 305c-4.5 0-8.2 3.7-8.2 8.2 0 38 13.2 75.1 37.2 104.6 2.8 3.5 8 4 11.5 1.2s4-8 1.2-11.5C75 383.1 63.3 353 61.5 321.8c12.1 1.2 19.2 5.1 27.1 9.5 10.1 5.6 21.6 11.9 43.4 11.9 21.8 0 33.3-6.3 43.4-11.9 9.6-5.3 17.9-9.9 35.5-9.9s25.9 4.6 35.5 9.9c10.1 5.6 21.6 11.9 43.4 11.9s33.3-6.3 43.4-11.9c7.9-4.4 15-8.3 27.1-9.5-4.2 78.6-69.5 141.2-149.2 141.2-34.2 0-67.7-11.9-94.3-33.5-3.5-2.8-8.6-2.3-11.5 1.2-2.8 3.5-2.3 8.6 1.2 11.5 29.5 24 66.7 37.2 104.6 37.2 91.6 0 166.1-74.5 166.1-166.1 0-4.5-3.7-8.2-8.2-8.2-21.9 0-33.3 6.3-43.4 11.9-9.6 5.2-17.9 9.8-35.6 9.8z" fill="#700d00"/></svg>